<?xml version="1.0" encoding="UTF-8" standalone="no"?>
<!-- Created with Inkscape (http://www.inkscape.org/) -->

<svg
   xmlns:dc="http://purl.org/dc/elements/1.1/"
   xmlns:cc="http://creativecommons.org/ns#"
   xmlns:rdf="http://www.w3.org/1999/02/22-rdf-syntax-ns#"
   xmlns:svg="http://www.w3.org/2000/svg"
   xmlns="http://www.w3.org/2000/svg"
   xmlns:sodipodi="http://sodipodi.sourceforge.net/DTD/sodipodi-0.dtd"
   xmlns:inkscape="http://www.inkscape.org/namespaces/inkscape"
   width="400"
   height="225"
   viewBox="0 0 105.83333 59.531254"
   version="1.1"
   id="svg8"
   inkscape:version="0.92.3 (2405546, 2018-03-11)"
   sodipodi:docname="Logo GrupoIS.svg"
   inkscape:export-filename="U:\CGI\CPD\Documentos\Logo GrupoIS.svg.png"
   inkscape:export-xdpi="96"
   inkscape:export-ydpi="96">
  <defs
     id="defs2" />
  <sodipodi:namedview
     id="base"
     pagecolor="#ffffff"
     bordercolor="#666666"
     borderopacity="1.0"
     inkscape:pageopacity="0.0"
     inkscape:pageshadow="2"
     inkscape:zoom="1.979899"
     inkscape:cx="309.40915"
     inkscape:cy="86.968493"
     inkscape:document-units="mm"
     inkscape:current-layer="Layer1000"
     showgrid="false"
     inkscape:window-width="1680"
     inkscape:window-height="976"
     inkscape:window-x="-8"
     inkscape:window-y="-8"
     inkscape:window-maximized="1"
     units="px" />
  <metadata
     id="metadata5">
    <rdf:RDF>
      <cc:Work
         rdf:about="">
        <dc:format>image/svg+xml</dc:format>
        <dc:type
           rdf:resource="http://purl.org/dc/dcmitype/StillImage" />
        <dc:title></dc:title>
      </cc:Work>
    </rdf:RDF>
  </metadata>
  <g
     inkscape:label="Camada 1"
     inkscape:groupmode="layer"
     id="layer1"
     transform="translate(0,-237.46873)">
    <g
       id="Layer1000"
       transform="matrix(0.26458333,0,0,0.26458333,-15.476754,-37.239109)">
      <path
         inkscape:connector-curvature="0"
         id="path283"
         style="fill:#002d57;fill-rule:evenodd;stroke-width:0.96319705"
         d="m 191.26462,1039.3022 c 63.73986,0 115.41133,50.2409 115.41133,112.2163 0,44.6585 -26.83486,83.2145 -65.67838,101.2739 -0.17752,0.082 -1.15507,0.5148 -1.33345,0.5968 l -0.10374,-17.7823 c 0.65883,-0.4004 2.12366,-1.0085 2.7716,-1.4237 26.6872,-17.1028 44.37632,-47.0148 44.37632,-81.0672 0,-53.1534 -43.08901,-96.2424 -96.24284,-96.2424 -53.15297,0 -96.241977,43.089 -96.241977,96.2424 0,48.7807 36.292877,89.0786 83.347947,95.3798 v 14.4493 c -57.2847,-6.5855 -101.717659,-53.9571 -101.717659,-111.4266 0,-61.9754 51.670999,-112.2163 115.410849,-112.2163 z m 34.47263,219.3227 c -2.46501,0.7504 -4.96537,1.425 -7.49926,2.0151 v -15.3636 c 2.5334,-0.7626 5.02202,-1.6288 7.46218,-2.5896 0.0118,5.8457 0.0118,13.5623 0.0371,15.9381 z m -23.90925,4.6336 c -2.56643,0.2282 -5.15695,0.3785 -7.76914,0.4388 -0.0298,-5.373 -0.0298,-8.6558 0.0493,-14.4136 2.59139,-0.097 5.15792,-0.2957 7.69267,-0.5937 0.0118,6.9112 0.0118,12.2514 0.0272,14.5685 z" />
      <path
         inkscape:connector-curvature="0"
         id="path285"
         style="fill:#002d57;fill-rule:evenodd;stroke-width:0.96319705"
         d="m 241.75965,1182.7473 -17.6004,-10.8007 -3.80762,1.3992 v -68.1737 l -17.35989,-13.9576 -1.85791,-1.3762 -29.96179,13.6081 v 32.3065 l -25.75627,9.463 v 106.4264 c 9.29466,5.2711 19.23995,8.5933 29.75315,10.2152 1.00115,0.2096 1.98641,0.388 2.95953,0.5397 v -123.8678 l 15.90055,12.2401 v 113.3787 c 3.01519,-0.1182 4.56054,-0.144 7.78359,-0.4491 v -169.6198 l 15.90056,12.2401 v 154.8155 c 2.72045,-0.6367 5.95255,-1.4644 7.99376,-2.0481 0.0172,-0.5683 -0.0765,-0.4293 0.005,-1.1379 v -81.9022 l 13.84846,8.0368 v 67.9066 l -0.33644,0.264 c 1.00972,-0.5009 2.06933,-1.051 3.19993,-1.6669 z" />
      <text
         id="text289"
         y="1003.6729"
         x="362.30658"
         style="font-size:10.09179211px;stroke-width:0.84098274"
         transform="scale(0.87311591,1.1453233)">
        <tspan
           style="font-size:29.43439102px;font-family:'Dutch801 Rm BT';fill:#002d57;stroke-width:0.84098274"
           id="tspan287"
           font-size="35.0000">GRUPO</tspan>
      </text>
      <text
         id="text293"
         y="1245.5355"
         x="314.21423"
         style="font-size:11.55836487px;stroke-width:0.96319705">
        <tspan
           style="font-size:117.99164581px;font-family:'Dutch801 Rm BT';fill:#002d57;stroke-width:0.96319705"
           id="tspan291"
           font-size="122.5000">IS</tspan>
      </text>
    </g>
  </g>
</svg>
